<?xml version="1.0" encoding="UTF-8"?>
<svg version="1.1" xmlns="http://www.w3.org/2000/svg" width="1000" height="372">
<path d="M0 0 C3.02959848 1.32783717 4.825697 2.6577001 6.8828125 5.23828125 C7.66603882 6.21099976 7.66603882 6.21099976 8.46508789 7.20336914 C9.01285889 7.89938232 9.56062988 8.59539551 10.125 9.3125 C10.70048584 10.03236084 11.27597168 10.75222168 11.86889648 11.49389648 C16.13861701 16.85340558 20.32016102 22.27885182 24.4765625 27.7265625 C27.24524954 31.33837073 30.08801701 34.88929321 32.9375 38.4375 C36.83720261 43.29345153 40.71824557 48.16250182 44.5625 53.0625 C45.01375244 53.63750244 45.46500488 54.21250488 45.92993164 54.80493164 C48.18164366 57.6761367 50.42982535 60.55007211 52.67578125 63.42578125 C57.57538778 69.69073531 62.53142927 75.90247023 67.5625 82.0625 C71.4667889 86.84392621 75.31875117 91.65423148 79.0625 96.5625 C82.62883758 101.23682596 86.25606465 105.85333721 89.9375 110.4375 C96.13569088 118.15555378 102.2511286 125.93637256 108.35449219 133.72949219 C113.53769563 140.34563308 118.74237694 146.94277781 124 153.5 C130.62209135 161.75896492 137.15989322 170.08287533 143.67578125 178.42578125 C148.57538778 184.69073531 153.53142927 190.90247023 158.5625 197.0625 C162.4667889 201.84392621 166.31875117 206.65423148 170.0625 211.5625 C173.62883758 216.23682596 177.25606465 220.85333721 180.9375 225.4375 C187.13569088 233.15555378 193.2511286 240.93637256 199.35449219 248.72949219 C206.05897633 257.28748382 212.81825042 265.79937718 219.62060547 274.27978516 C221.66599706 276.83055138 223.70796013 279.38404979 225.75 281.9375 C226.38421875 282.73027344 227.0184375 283.52304687 227.671875 284.33984375 C228.32929687 285.16162109 228.32929687 285.16162109 229 286 C226.34119514 289.32885548 222.87732579 290.37467388 218.98828125 291.73046875 C218.25888336 291.99299942 217.52948547 292.25553009 216.77798462 292.52601624 C215.16035266 293.10768928 213.54140169 293.68570334 211.9213562 294.26062012 C207.27106487 295.91278534 202.63230697 297.59686767 197.9921875 299.27734375 C196.9693718 299.64711334 195.94655609 300.01688293 194.89274597 300.39785767 C182.20557197 304.99461341 169.57645171 309.74665721 156.9455452 314.495224 C153.5589789 315.768153 150.17190514 317.03973044 146.78491211 318.31152344 C141.13250063 320.43422911 135.48044907 322.55789094 129.82861328 324.68212891 C120.71839148 328.10613842 111.60744381 331.52821277 102.49609375 334.94921875 C101.33960264 335.3834786 101.33960264 335.3834786 100.15974808 335.82651138 C91.68421265 339.00890912 83.20765761 342.18855095 74.72851562 345.36132812 C73.61280654 345.77884936 73.61280654 345.77884936 72.47455788 346.20480537 C66.4319398 348.46604598 66.4319398 348.46604598 63.61915207 349.51821518 C55.03981054 352.72787794 46.46775717 355.95528971 37.90686035 359.21388245 C33.57371523 360.86129931 29.23626201 362.49713575 24.89776611 364.13040161 C22.9507352 364.86678564 21.00579319 365.60872087 19.06317139 366.35665894 C16.45223028 367.36150509 13.83478502 368.34703571 11.21484375 369.328125 C10.47363785 369.61931717 9.73243195 369.91050934 8.96876526 370.21052551 C8.27774216 370.46492905 7.58671906 370.71933258 6.87475586 370.98144531 C5.99804482 371.31562469 5.99804482 371.31562469 5.10362244 371.65655518 C-0.24921522 372.53047835 -5.37326615 370.68855445 -10.33178711 368.83300781 C-11.55422623 368.37947433 -12.77666534 367.92594086 -14.03614807 367.45866394 C-15.36659949 366.95695778 -16.6969964 366.45510705 -18.02734375 365.953125 C-19.43177603 365.42906693 -20.83643978 364.90562883 -22.24131775 364.38276672 C-26.02155916 362.97384218 -29.79848898 361.55623281 -33.57485199 360.13695145 C-37.55664269 358.64216466 -41.54143336 357.15541677 -45.52587891 355.66772461 C-52.77568839 352.95944533 -60.02287783 350.24423713 -67.26870346 347.5253191 C-73.22642162 345.28978115 -79.18558806 343.05814481 -85.14533997 340.82803345 C-96.35377059 336.63379723 -107.55848739 332.42972893 -118.76142883 328.22085571 C-128.71719578 324.48084486 -138.67475086 320.74561483 -148.6328125 317.01171875 C-149.43494045 316.71094988 -150.23706841 316.41018101 -151.06350327 316.10029793 C-155.1152568 314.58105472 -159.16702933 313.06186217 -163.21881104 311.54269409 C-170.05633418 308.9790215 -176.89370244 306.4149359 -183.73107529 303.8508625 C-187.21133518 302.5457395 -190.6916055 301.24064426 -194.171875 299.93554688 C-195.49414068 299.4396974 -196.8164063 298.9438478 -198.13867188 298.44799805 C-199.09954712 298.08766983 -199.09954712 298.08766983 -200.07983398 297.72006226 C-208.71988932 294.4800415 -217.35994466 291.24002075 -226 288 C-225.13212025 283.75627304 -222.93639339 281.04957674 -220.25 277.75 C-219.52115601 276.8384314 -219.52115601 276.8384314 -218.77758789 275.90844727 C-217.19329071 273.93215903 -215.59837422 271.96491689 -214 270 C-213.19248291 269.00685791 -213.19248291 269.00685791 -212.36865234 267.99365234 C-210.17103642 265.2929756 -207.97259422 262.59298454 -205.77075195 259.89575195 C-202.42765234 255.79089577 -199.14805545 251.64672154 -195.9375 247.4375 C-191.87719332 242.11573881 -187.72447229 236.87721646 -183.53320312 231.65820312 C-180.14434913 227.43623778 -176.77909941 223.19696363 -173.4375 218.9375 C-172.98697266 218.36322266 -172.53644531 217.78894531 -172.07226562 217.19726562 C-170.71432079 215.46525277 -169.35702859 213.73273081 -168 212 C-161.86770718 204.1699419 -155.70444342 196.36730552 -149.48291016 188.60791016 C-146.11292851 184.40115324 -142.7652785 180.17771474 -139.4375 175.9375 C-138.98616699 175.36241699 -138.53483398 174.78733398 -138.06982422 174.19482422 C-135.81823665 171.32366687 -133.57010429 168.4498378 -131.32421875 165.57421875 C-126.42461222 159.30926469 -121.46857073 153.09752977 -116.4375 146.9375 C-112.5332111 142.15607379 -108.68124883 137.34576852 -104.9375 132.4375 C-100.87719332 127.11573881 -96.72447229 121.87721646 -92.53320312 116.65820312 C-89.14434913 112.43623778 -85.77909941 108.19696363 -82.4375 103.9375 C-81.98697266 103.36322266 -81.53644531 102.78894531 -81.07226562 102.19726562 C-79.71432079 100.46525277 -78.35702859 98.73273081 -77 97 C-70.86770718 89.1699419 -64.70444342 81.36730552 -58.48291016 73.60791016 C-55.11292851 69.40115324 -51.7652785 65.17771474 -48.4375 60.9375 C-47.98616699 60.36241699 -47.53483398 59.78733398 -47.06982422 59.19482422 C-44.81823665 56.32366687 -42.57010429 53.4498378 -40.32421875 50.57421875 C-34.88465213 43.61883676 -29.3608037 36.74052246 -23.77490234 29.90209961 C-20.36436157 25.71440283 -17.02420373 21.48251147 -13.75 17.1875 C-9.29591382 11.3460755 -4.69034782 5.65334193 0 0 Z " fill="#7C35A9" transform="translate(226,0)"/>
<path d="M0 0 C0.33 0 0.66 0 1 0 C1 122.76 1 245.52 1 372 C-5.52443426 370.04266972 -11.89644685 368.035864 -18.26953125 365.68359375 C-19.15337494 365.35976212 -20.03721863 365.03593048 -20.94784546 364.70228577 C-23.90402912 363.6175216 -26.85834776 362.52778332 -29.8125 361.4375 C-30.8597525 361.05207031 -31.907005 360.66664063 -32.98599243 360.26953125 C-53.8820097 352.57727326 -74.71623978 344.72274597 -95.54605103 336.85345459 C-120.65292417 327.36854818 -145.7965831 317.98589917 -170.96607494 308.66845894 C-174.40468673 307.39545188 -177.84305547 306.12178978 -181.28125 304.84765625 C-181.93783915 304.60435703 -182.59442829 304.36105782 -183.27091408 304.11038589 C-197.54379845 298.81889816 -211.77660968 293.42295574 -226 288 C-225.13212025 283.75627304 -222.93639339 281.04957674 -220.25 277.75 C-219.52115601 276.8384314 -219.52115601 276.8384314 -218.77758789 275.90844727 C-217.19329071 273.93215903 -215.59837422 271.96491689 -214 270 C-213.19248291 269.00685791 -213.19248291 269.00685791 -212.36865234 267.99365234 C-210.17103642 265.2929756 -207.97259422 262.59298454 -205.77075195 259.89575195 C-202.42765234 255.79089577 -199.14805545 251.64672154 -195.9375 247.4375 C-191.87719332 242.11573881 -187.72447229 236.87721646 -183.53320312 231.65820312 C-180.14434913 227.43623778 -176.77909941 223.19696363 -173.4375 218.9375 C-172.98697266 218.36322266 -172.53644531 217.78894531 -172.07226562 217.19726562 C-170.71432079 215.46525277 -169.35702859 213.73273081 -168 212 C-161.86770718 204.1699419 -155.70444342 196.36730552 -149.48291016 188.60791016 C-146.11292851 184.40115324 -142.7652785 180.17771474 -139.4375 175.9375 C-138.98616699 175.36241699 -138.53483398 174.78733398 -138.06982422 174.19482422 C-135.81823665 171.32366687 -133.57010429 168.4498378 -131.32421875 165.57421875 C-126.42461222 159.30926469 -121.46857073 153.09752977 -116.4375 146.9375 C-112.5332111 142.15607379 -108.68124883 137.34576852 -104.9375 132.4375 C-100.87719332 127.11573881 -96.72447229 121.87721646 -92.53320312 116.65820312 C-89.14434913 112.43623778 -85.77909941 108.19696363 -82.4375 103.9375 C-81.98697266 103.36322266 -81.53644531 102.78894531 -81.07226562 102.19726562 C-79.71432079 100.46525277 -78.35702859 98.73273081 -77 97 C-70.86770718 89.1699419 -64.70444342 81.36730552 -58.48291016 73.60791016 C-55.11292851 69.40115324 -51.7652785 65.17771474 -48.4375 60.9375 C-47.98616699 60.36241699 -47.53483398 59.78733398 -47.06982422 59.19482422 C-44.81823665 56.32366687 -42.57010429 53.4498378 -40.32421875 50.57421875 C-34.88465213 43.61883676 -29.3608037 36.74052246 -23.77490234 29.90209961 C-20.36434922 25.71438766 -17.02461788 21.48220784 -13.75 17.1875 C-4.72488313 5.37065303 -4.72488313 5.37065303 0 0 Z " fill="#943ABD" transform="translate(226,0)"/>
<path d="M0 0 C11.26890045 3.38067013 11.26890045 3.38067013 16.44921875 5.27734375 C18.18957397 5.91373779 18.18957397 5.91373779 19.96508789 6.56298828 C21.19348389 7.01657715 22.42187988 7.47016602 23.6875 7.9375 C24.66298294 8.29639313 24.66298294 8.29639313 25.65817261 8.66253662 C35.96322079 12.4553874 46.21610527 16.37415246 56.44836426 20.35952759 C92.15958361 34.2659192 128.1125359 47.55704984 164 61 C171.67727044 63.87592167 179.35434978 66.75235225 187.03109741 69.62966919 C190.09778941 70.77888184 193.16473158 71.92742489 196.23168945 73.07592773 C205.83771973 76.67506436 215.43647193 80.28903184 225 84 C225 84.99 225 85.98 225 87 C224.09314453 87.32871094 223.18628906 87.65742188 222.25195312 87.99609375 C199.42912759 96.27701612 176.66679891 104.71606742 153.9375 113.25 C153.27158089 113.50000385 152.60566177 113.75000771 151.91956329 114.00758743 C143.4951504 117.17048077 135.07162833 120.33574296 126.64831924 123.50157452 C52.54346666 151.35225806 52.54346666 151.35225806 23.62310791 162.07546997 C21.64367138 162.80966398 19.66461848 163.54489324 17.68597412 164.28121948 C15.03404105 165.26759207 12.38059427 166.2497598 9.7265625 167.23046875 C8.95955017 167.51649963 8.19253784 167.80253052 7.40228271 168.097229 C2.22952434 170 2.22952434 170 0 170 C0 113.9 0 57.8 0 0 Z " fill="#5B228F" transform="translate(227,202)"/>
<path d="M0 0 C3.5748874 2.99871507 6.64935849 6.02941598 8.5703125 10.3515625 C8.5703125 11.3415625 8.5703125 12.3315625 8.5703125 13.3515625 C9.2303125 13.3515625 9.8903125 13.3515625 10.5703125 13.3515625 C10.75207031 12.46791016 10.75207031 12.46791016 10.9375 11.56640625 C12.53220107 5.98495252 16.7226637 1.55115684 21.5 -1.58203125 C30.59003876 -6.26425876 40.93097895 -7.04776171 50.7578125 -4.5234375 C59.19814049 -1.64300811 64.66852315 3.4120982 68.5703125 11.3515625 C72.42221428 20.24102948 71.95625189 29.47477546 71.86328125 38.953125 C71.85767586 40.64276755 71.85341022 42.33241501 71.85041809 44.02206421 C71.83904346 48.43782356 71.80964119 52.85328002 71.77630615 57.2689209 C71.74544477 61.78731185 71.73187864 66.30575245 71.71679688 70.82421875 C71.68476323 79.66682017 71.63205699 88.50911859 71.5703125 97.3515625 C64.6403125 97.3515625 57.7103125 97.3515625 50.5703125 97.3515625 C50.5405835 94.57528442 50.5405835 94.57528442 50.51025391 91.74291992 C50.44214208 85.58815464 50.36534334 79.43354423 50.28278542 73.27895641 C50.23310276 69.55197467 50.18677344 65.82501749 50.1484375 62.09790039 C50.11122654 58.4926889 50.06477648 54.8876983 50.01224899 51.2826786 C49.99389316 49.91580441 49.97871797 48.54888321 49.96696854 47.18193626 C50.31465924 31.16408661 50.31465924 31.16408661 43.5703125 17.3515625 C38.05037142 14.20074646 32.53899343 13.52903795 26.30859375 14.8203125 C20.58233884 16.41041304 17.90512577 18.45355551 14.5703125 23.3515625 C13.10380294 26.28458162 13.40492776 28.91311111 13.36499023 32.18798828 C13.35509064 32.89053741 13.34519104 33.59308655 13.33499146 34.31692505 C13.3033557 36.64354053 13.27861091 38.97017644 13.25390625 41.296875 C13.23333851 42.90827979 13.21234208 44.51967916 13.19093323 46.131073 C13.13569396 50.37578956 13.08629289 54.62055497 13.03808594 58.86535645 C12.98788444 63.19543818 12.93219133 67.52544885 12.87695312 71.85546875 C12.76934885 80.35410826 12.6684163 88.85280801 12.5703125 97.3515625 C5.3103125 97.3515625 -1.9496875 97.3515625 -9.4296875 97.3515625 C-9.44427002 95.40459473 -9.45885254 93.45762695 -9.47387695 91.45166016 C-9.52573119 84.98551531 -9.59107056 78.519614 -9.66540241 72.05368996 C-9.70994071 68.13721438 -9.74923207 64.22083887 -9.77612305 60.30419922 C-9.80232265 56.51737155 -9.84283935 52.73093244 -9.89287376 48.94434738 C-9.90943083 47.50687912 -9.92101405 46.06934383 -9.92730141 44.63179398 C-9.9112428 30.67081279 -9.9112428 30.67081279 -15.7421875 18.3515625 C-21.2727835 14.23577013 -25.98853619 13.9669385 -32.671875 14.75 C-36.87917301 15.66773923 -40.36007363 17.30366759 -43.4296875 20.3515625 C-46.13362368 24.90164561 -46.81521611 28.28497818 -46.86206055 33.55029297 C-46.8722522 34.24367264 -46.88244385 34.93705231 -46.89294434 35.65144348 C-46.92293426 37.92396267 -46.93231834 40.1960594 -46.94140625 42.46875 C-46.95826341 44.05202622 -46.97641505 45.63528914 -46.99580383 47.21853638 C-47.04319769 51.37113285 -47.07307544 55.52367539 -47.09924316 59.67645264 C-47.12910248 63.91982674 -47.17561429 68.16301523 -47.22070312 72.40625 C-47.30661553 80.72127814 -47.37247375 89.03628732 -47.4296875 97.3515625 C-54.6896875 97.3515625 -61.9496875 97.3515625 -69.4296875 97.3515625 C-69.4296875 64.0215625 -69.4296875 30.6915625 -69.4296875 -3.6484375 C-62.1696875 -3.6484375 -54.9096875 -3.6484375 -47.4296875 -3.6484375 C-46.9346875 3.2815625 -46.9346875 3.2815625 -46.4296875 10.3515625 C-45.5840625 8.9696875 -44.7384375 7.5878125 -43.8671875 6.1640625 C-39.67788432 -0.0757427 -35.20451163 -3.86659734 -27.6484375 -5.36328125 C-17.84085622 -6.62376265 -8.37937547 -5.68504252 0 0 Z " fill="#FFFFFF" transform="translate(928.4296875,188.6484375)"/>
<path d="M0 0 C10.16918103 9.16343785 14.07050435 23.64622967 14.96484375 36.875 C15.00609375 37.75414062 15.04734375 38.63328125 15.08984375 39.5390625 C15.13109375 40.31507813 15.17234375 41.09109375 15.21484375 41.890625 C15.67025515 58.91162616 12.50529757 75.53357066 0.50390625 88.21484375 C-7.07944195 95.38876236 -17.18439178 97.96166726 -27.42578125 97.73828125 C-37.70416681 96.91407109 -43.93796158 93.07067005 -50.91015625 85.5390625 C-51.57015625 84.5490625 -52.23015625 83.5590625 -52.91015625 82.5390625 C-53.24015625 99.3690625 -53.57015625 116.1990625 -53.91015625 133.5390625 C-61.17015625 133.5390625 -68.43015625 133.5390625 -75.91015625 133.5390625 C-75.91015625 87.3390625 -75.91015625 41.1390625 -75.91015625 -6.4609375 C-68.65015625 -6.4609375 -61.39015625 -6.4609375 -53.91015625 -6.4609375 C-53.58015625 -2.1709375 -53.25015625 2.1190625 -52.91015625 6.5390625 C-52.08515625 5.3221875 -51.26015625 4.1053125 -50.41015625 2.8515625 C-45.94061884 -3.0763451 -40.4040303 -6.68094872 -33.10546875 -8.18359375 C-20.7102798 -9.74953399 -9.98599504 -7.6375504 0 0 Z M-50.91015625 17.5390625 C-54.26201746 22.72660939 -54.35016254 27.16739221 -54.30859375 33.13671875 C-54.31146393 34.04860458 -54.31433411 34.96049042 -54.31729126 35.90000916 C-54.31932572 37.82047144 -54.31383922 39.74095473 -54.30126953 41.66137695 C-54.28518845 44.59568672 -54.30114873 47.52862306 -54.3203125 50.46289062 C-54.31833032 52.33333636 -54.31448717 54.20378125 -54.30859375 56.07421875 C-54.31466644 56.94828873 -54.32073914 57.8223587 -54.32699585 58.72291565 C-54.25262037 65.181107 -52.93670437 68.46308638 -48.34765625 73.1640625 C-42.7699038 77.50536736 -36.24754272 78.86738586 -29.28515625 78.5390625 C-22.46667818 77.64341496 -17.61335775 74.65887811 -13.03515625 69.6015625 C-5.64184981 58.94650321 -6.81114503 41.84784041 -8.53515625 29.4140625 C-10.1006179 22.32600002 -13.99120982 17.57034832 -19.97265625 13.6015625 C-22.9497361 11.92131667 -25.45986343 10.80446964 -28.91015625 10.5390625 C-29.98265625 10.4565625 -31.05515625 10.3740625 -32.16015625 10.2890625 C-39.15004966 10.75505539 -45.48795006 13.02055734 -50.91015625 17.5390625 Z " fill="#FFFFFF" transform="translate(601.91015625,191.4609375)"/>
<path d="M0 0 C1.64148316 1.38869475 3.24030561 2.82759561 4.828125 4.27734375 C4.25091653 7.77907514 3.05943846 9.40497305 0.515625 11.83984375 C-0.11085938 12.44054687 -0.73734375 13.04125 -1.3828125 13.66015625 C-3.23098763 15.33077744 -5.1105785 16.87566213 -7.171875 18.27734375 C-10.25185765 16.80461641 -13.09715402 15.09606563 -15.984375 13.27734375 C-23.46097828 8.79575406 -30.80378029 6.85975049 -39.41796875 8.77734375 C-42.73791923 9.84947455 -44.78552424 10.87928539 -47.234375 13.40234375 C-48.54577626 17.42397429 -48.82185747 21.31880212 -47.171875 25.27734375 C-42.91874753 28.8418089 -39.21897594 29.94148235 -33.796875 30.77734375 C-32.38091295 31.01733451 -30.96555888 31.26093533 -29.55078125 31.5078125 C-28.82906738 31.6320459 -28.10735352 31.7562793 -27.36376953 31.88427734 C-16.04675208 33.9137269 -6.08546084 36.20813723 2.203125 44.71484375 C7.58657722 53.2041338 8.03568399 61.47282898 6.828125 71.27734375 C4.51555617 79.99137121 -1.77727149 86.05210037 -9.3671875 90.58984375 C-22.96531492 97.21832163 -39.00597893 96.62480841 -53.171875 92.27734375 C-61.94325207 88.51342372 -69.42203439 83.66024697 -74.171875 75.27734375 C-72.75840938 73.8366961 -71.34096289 72.3999536 -69.921875 70.96484375 C-69.13296875 70.16433594 -68.3440625 69.36382812 -67.53125 68.5390625 C-62.04234132 63.27734375 -62.04234132 63.27734375 -58.171875 63.27734375 C-57.01816965 64.4310491 -55.86904967 65.58978126 -54.74609375 66.7734375 C-48.00041207 73.21782322 -40.87788871 76.1957507 -31.671875 76.58984375 C-26.5299274 76.46529831 -21.44710259 75.30154858 -17.5078125 71.796875 C-14.91311666 68.84559815 -14.83433194 66.18968447 -14.890625 62.3125 C-15.34178199 59.04787786 -16.79065364 57.46549311 -19.171875 55.27734375 C-23.78447218 52.91822916 -28.66776286 52.55378554 -33.734375 51.90234375 C-45.53156905 50.22813692 -56.60291016 48.26386408 -65.171875 39.27734375 C-70.77428637 30.95153797 -71.28587425 21.50719887 -69.78125 11.7421875 C-67.78511084 4.48698941 -62.97339638 -1.17383849 -56.77734375 -5.328125 C-38.74719344 -15.01045769 -15.85668592 -12.5769757 0 0 Z " fill="#FFFFFF" transform="translate(829.171875,193.72265625)"/>
<path d="M0 0 C7.26 0 14.52 0 22 0 C22.33 4.95 22.66 9.9 23 15 C24.32 13.02 25.64 11.04 27 9 C28.7109375 7.171875 28.7109375 7.171875 30.375 5.75 C31.19097656 5.03070313 31.19097656 5.03070313 32.0234375 4.296875 C37.10440165 0.96311986 42.49323933 0.63115098 48.375 0.375 C50.89125 0.25125 53.4075 0.1275 56 0 C56 7.26 56 14.52 56 22 C53.07125 22.0825 50.1425 22.165 47.125 22.25 C34.93151084 22.78561505 34.93151084 22.78561505 24.91473389 29.1516571 C22.55296726 32.66500234 22.48487603 34.69320358 22.45410156 38.90161133 C22.44376389 39.57533783 22.43342621 40.24906433 22.42277527 40.94320679 C22.39342281 43.15639442 22.39184982 45.36866456 22.390625 47.58203125 C22.3756381 49.12189978 22.35890987 50.66175227 22.34051514 52.20158386 C22.29688602 56.24409741 22.2768526 60.28639413 22.26177979 64.32910156 C22.24219251 68.45846351 22.20022439 72.58759185 22.16015625 76.71679688 C22.08490208 84.81116533 22.03665161 92.90536461 22 101 C14.74 101 7.48 101 0 101 C0 67.67 0 34.34 0 0 Z " fill="#FFFFFF" transform="translate(640,185)"/>
<path d="M0 0 C7.26 0 14.52 0 22 0 C22 33.33 22 66.66 22 101 C14.74 101 7.48 101 0 101 C0 67.67 0 34.34 0 0 Z " fill="#FFFFFF" transform="translate(713,185)"/>
<path d="M0 0 C2.64 0 5.28 0 8 0 C11.63 6.6 15.26 13.2 19 20 C21.00953063 17.32062583 22.66222101 14.98383471 24.26171875 12.109375 C24.65810547 11.40039062 25.05449219 10.69140625 25.46289062 9.9609375 C25.86701172 9.23132813 26.27113281 8.50171875 26.6875 7.75 C27.31108398 6.63238281 27.31108398 6.63238281 27.94726562 5.4921875 C28.96744233 3.66290513 29.98407487 1.83164698 31 0 C33.31 0 35.62 0 38 0 C38 13.86 38 27.72 38 42 C36.02 42 34.04 42 32 42 C31.67 32.43 31.34 22.86 31 13 C27.37 19.6 23.74 26.2 20 33 C17.4782497 30.4782497 16.17594558 28.80270555 14.51953125 25.76953125 C14.12096924 25.04612549 13.72240723 24.32271973 13.31176758 23.57739258 C12.81700928 22.66497803 12.32225098 21.75256348 11.8125 20.8125 C10.224375 17.904375 8.63625 14.99625 7 12 C6.67 21.9 6.34 31.8 6 42 C4.02 42 2.04 42 0 42 C0 28.14 0 14.28 0 0 Z " fill="#FFFFFF" transform="translate(901,318)"/>
<path d="M0 0 C4.972208 2.2680247 7.3020298 5.30353336 10 10 C12.32903009 16.98709027 12.51427808 28.02163197 9.3125 34.8125 C6.32607058 38.92892974 3.84271262 41.38576246 -1 43 C-7.22902738 43.50849203 -12.72027152 43.73444209 -18 40 C-24.46436881 33.17649959 -24.51923523 26.04274632 -24.31640625 17.125 C-23.97748433 10.80602069 -22.08869112 6.93949889 -17.375 2.5625 C-11.929881 -1.01981513 -6.37748809 -0.55152455 0 0 Z M-15 8 C-17.83043816 12.62851844 -18.40764263 16.17102524 -18.375 21.5625 C-18.38273438 22.84253906 -18.39046875 24.12257813 -18.3984375 25.44140625 C-17.98238502 29.15732593 -17.16486053 31.006276 -15 34 C-14.4121875 34.86625 -14.4121875 34.86625 -13.8125 35.75 C-10.82404831 37.81100117 -7.54306527 38.12480465 -4 38 C-0.7586235 36.55938822 1.72724345 34.72730785 4 32 C6.0147965 25.9556105 6.12007399 17.67361056 4.24609375 11.52734375 C2.92431137 9.08593394 1.3587599 7.28453372 -0.8125 5.5625 C-6.23166789 4.16899969 -10.63564541 4.36303784 -15 8 Z " fill="#FFFFFF" transform="translate(882,318)"/>
<path d="M0 0 C3.2924911 3.39538145 3.21241839 5.72383894 3.3125 10.375 C3.34988281 11.50550781 3.38726563 12.63601562 3.42578125 13.80078125 C2.91423145 17.7195343 1.75007654 19.28236798 -1 22.0625 C-6.10984093 24.73908335 -11.51738199 24.49711838 -17 23.0625 C-20.30460168 20.49974768 -21.68312801 19.01311598 -23 15.0625 C-23.56584041 9.34968817 -23.24101129 4.98403566 -20 0.0625 C-13.87025179 -4.0239988 -6.18948064 -3.99737291 0 0 Z " fill="#FFFFFF" transform="translate(734,144.9375)"/>
<path d="M0 0 C1.98 0 3.96 0 6 0 C6.33 4.62 6.66 9.24 7 14 C8.65 13.34 10.3 12.68 12 12 C16.16692795 11.76324273 19.31797428 12.58485391 22.875 14.75 C27.79126932 19.95546163 27.42025225 25.84741805 27.3203125 32.671875 C26.89277269 37.11411792 26.08237225 38.8320063 23 42 C22.443125 42.61875 21.88625 43.2375 21.3125 43.875 C17.70200412 45.63145746 13.94292075 45.55912504 10 45 C9.01 44.34 8.02 43.68 7 43 C6.505 43.495 6.505 43.495 6 44 C4.02 44 2.04 44 0 44 C0 29.48 0 14.96 0 0 Z M7.2734375 19.0625 C5.31837468 22.0370741 5.60571545 25.06504903 5.6875 28.5 C5.68427734 29.17675781 5.68105469 29.85351562 5.67773438 30.55078125 C5.71769832 34.23473014 5.90805303 35.86207954 8 39 C12.71581309 40.23693458 14.72372552 40.71790439 19 38.3125 C22.01891968 33.31241429 21.82557915 28.69256484 21 23 C19.7755983 19.63031977 19.7755983 19.63031977 17 18 C13.5832146 17.31251803 10.34628583 17.17151641 7.2734375 19.0625 Z " fill="#FFFFFF" transform="translate(782,316)"/>
<path d="M0 0 C1.98 0 3.96 0 6 0 C8.68506091 6.91170252 10.94896684 13.93279603 13.1875 21 C14.445625 24.96 15.70375 28.92 17 33 C20.63 22.11 24.26 11.22 28 0 C29.98 0 31.96 0 34 0 C33.39969594 5.42139888 32.08850043 10.20564002 30.27734375 15.33984375 C30.01240616 16.10680069 29.74746857 16.87375763 29.47450256 17.66395569 C28.63474324 20.09056843 27.7862807 22.51402993 26.9375 24.9375 C26.36335241 26.59159571 25.78977887 28.24589079 25.21679688 29.90039062 C23.81782552 33.9359296 22.4110456 37.96866779 21 42 C18.36 42 15.72 42 13 42 C11.14285418 36.50265079 9.29159767 31.00336742 7.44580078 25.50219727 C6.81688839 23.63055789 6.18636244 21.7594599 5.55419922 19.88891602 C4.64647731 17.20208765 3.74455223 14.51337371 2.84375 11.82421875 C2.55939087 10.98662521 2.27503174 10.14903168 1.98205566 9.28605652 C1.72178589 8.50547379 1.46151611 7.72489105 1.19335938 6.9206543 C0.96241577 6.23448532 0.73147217 5.54831635 0.49353027 4.84135437 C0 3 0 3 0 0 Z " fill="#FFFFFF" transform="translate(945,318)"/>
<path d="M0 0 C1.98 0 3.96 0 6 0 C7.1773496 3.07935966 8.33997891 6.16407516 9.5 9.25 C9.83386719 10.12269531 10.16773438 10.99539063 10.51171875 11.89453125 C10.98544922 13.16103516 10.98544922 13.16103516 11.46875 14.453125 C11.76201172 15.22817383 12.05527344 16.00322266 12.35742188 16.80175781 C13 19 13 19 13 23 C13.66 23 14.32 23 15 23 C15.226875 21.80375 15.45375 20.6075 15.6875 19.375 C17.14819347 12.7112524 19.62240483 6.37957787 22 0 C23.98 0 25.96 0 28 0 C26.56142911 7.72061421 24.03112383 14.9346311 21.31420898 22.27661133 C20.55884687 24.32239396 19.8170577 26.3727648 19.07617188 28.42382812 C18.59455455 29.73727446 18.11216014 31.05043617 17.62890625 32.36328125 C17.19650635 33.54188721 16.76410645 34.72049316 16.31860352 35.93481445 C15.12703549 38.70469717 14.02116088 40.77685791 12 43 C9.23857697 43.52799676 6.83634455 43.18598981 4 43 C4 41.35 4 39.7 4 38 C6.475 37.505 6.475 37.505 9 37 C10.07401369 31.72930796 9.87878595 28.50655933 7.91015625 23.515625 C7.45576172 22.33355469 7.00136719 21.15148437 6.53320312 19.93359375 C6.04787109 18.71800781 5.56253906 17.50242187 5.0625 16.25 C4.10871869 13.82040763 3.1650839 11.38717436 2.22265625 8.953125 C1.79734619 7.88223633 1.37203613 6.81134766 0.93383789 5.70800781 C0 3 0 3 0 0 Z " fill="#FFFFFF" transform="translate(812,329)"/>
<path d="M0 0 C5.61 0 11.22 0 17 0 C17 1.65 17 3.3 17 5 C15.35 5 13.7 5 12 5 C12 15.56 12 26.12 12 37 C13.65 37 15.3 37 17 37 C17 38.65 17 40.3 17 42 C11.39 42 5.78 42 0 42 C0 40.35 0 38.7 0 37 C1.98 37 3.96 37 6 37 C6 26.44 6 15.88 6 5 C4.02 5 2.04 5 0 5 C0 3.35 0 1.7 0 0 Z " fill="#FFFFFF" transform="translate(983,318)"/>
</svg>
